<svg width="159" height="21" viewBox="0 0 159 21" fill="none" xmlns="http://www.w3.org/2000/svg">
<path d="M27.6459 14.8348C27.1617 14.5158 27.1496 14.4126 27.1375 14.2437C27.3818 14.3139 27.6396 14.352 27.9001 14.3563C28.2511 14.3563 28.3843 14.5439 28.6385 14.6753L28.9532 14.497L31.2166 14.7973C31.3048 14.7313 31.4145 14.6852 31.5338 14.6637C31.6532 14.6422 31.7778 14.6462 31.8945 14.6753C32.4266 14.8445 33.0067 14.9028 33.577 14.8442C33.8258 14.8159 34.0786 14.8159 34.3274 14.8442C34.5362 14.8751 34.7394 14.9255 34.9326 14.9943L34.6542 14.4689L35.3926 14.7316L36.022 14.4219C36.4143 14.5425 36.8193 14.6367 37.2324 14.7034C37.6005 14.7836 37.99 14.7836 38.3581 14.7034C37.6924 14.7503 37.1477 14.3844 36.4819 14.3563C35.9005 14.3055 35.328 14.2048 34.7753 14.056C34.4606 13.9903 34.2911 13.7276 33.8796 13.7464C33.468 13.7651 32.9838 13.6713 32.5239 13.6807C32.2313 13.6677 31.9442 13.6137 31.6766 13.5212C31.2651 13.4086 30.9261 13.1271 30.4662 13.174C30.2362 12.8362 29.6552 12.8081 29.4736 12.3389C29.6673 12.3389 29.8489 12.2357 29.982 12.2826C30.333 12.3858 30.672 12.5453 31.0351 12.6861L31.3014 12.5547C31.6403 12.7142 32.0518 12.5547 32.3786 12.5547L33.4922 13.1552C33.8069 13.0239 34.0732 12.733 34.3758 13.0802C34.4605 13.0145 34.509 12.9394 34.5937 12.9113C34.6784 12.8831 34.8721 12.8456 34.9568 12.9113C35.5136 13.2115 36.1673 12.7987 36.6998 13.1177L37.9103 12.7424L38.1402 12.8831L39.5201 12.414C39.1355 12.3703 38.7791 12.2322 38.5033 12.0199C38.9391 11.7009 39.3627 12.0668 39.7743 12.0199C40.1858 11.973 40.6942 11.9636 41.251 11.926L40.8758 11.6352C40.5368 11.7102 40.1132 11.5507 39.7501 11.8322C39.0601 11.41 38.1039 11.6164 37.3292 11.1754L36.9661 11.3912L36.252 11.1285L36.0946 11.2599C35.8358 11.198 35.5666 11.1663 35.2957 11.166C34.1431 11.1972 32.9892 11.1533 31.8461 11.0346C31.7599 11.022 31.6776 10.9965 31.604 10.9596C31.0052 10.7119 30.3819 10.5017 29.7399 10.3309C29.6189 10.3309 29.5342 10.1714 29.3526 10.0213L29.9094 9.7961L29.51 9.71165L29.5826 9.60842L28.239 9.68348L27.428 9.09237C26.584 8.93748 25.7163 8.87431 24.8498 8.90469L24.3173 8.47308C23.6636 8.47308 23.1068 8.5669 22.6711 8.31356C22.2937 8.17692 21.8732 8.12804 21.4607 8.17282C20.4439 8.17282 19.5845 7.70366 18.6162 7.67551C18.0473 7.24389 17.2121 7.30957 16.6432 6.90609L17.6842 6.48387L16.4738 6.14607L16.619 5.78951C16.1556 5.30713 15.5324 4.93101 14.8155 4.70107L14.3676 4.91689L12.7336 5.01072L12.3826 4.72921H11.7652C11.7047 4.64477 11.6321 4.52281 11.5595 4.40083L11.6321 4.32575L10.4217 3.84723H9.79226C9.55018 3.67834 9.38073 3.45313 9.04181 3.56572C8.54975 2.97624 7.93642 2.45325 7.22619 2.01752C7.11725 2.27086 7.00831 2.48666 6.89937 2.74001L7.35933 3.10596L6.92358 3.51882L5.95525 3.37808C5.89473 3.66895 5.85842 3.90352 5.81 4.18501C6.13682 4.39144 5.88263 4.76675 6.00367 5.05763L5.73738 5.32035C5.47109 5.32035 5.09585 5.14208 4.98691 5.23591C4.87797 5.32974 4.45433 5.34851 4.23646 5.41419C3.88544 6.2399 3.1834 6.99994 3.78861 7.94763L1.99718 8.04144C1.39678 9.01167 1.02382 10.057 0.895715 11.1285L0.363129 11.5413L0.496275 11.607C0.375234 11.8041 0.25419 11.9917 0.0968355 12.2638C0.181565 12.489 -0.0605156 12.855 0.326818 13.1177L0 13.5681L0.338915 14.5064H0.653617C1.54932 14.8817 1.86403 15.745 2.77185 15.9514C3.29232 15.745 3.37706 15.7637 4.10331 16.2047C4.21225 16.1578 4.33328 16.0546 4.41801 16.064C4.97924 16.0916 5.52529 16.2167 6.01577 16.4299C6.47573 16.0546 6.91148 16.2892 7.29881 16.505C7.68614 16.7208 7.71036 16.7208 7.92823 16.6363L8.23084 16.2423L8.49713 16.6363C8.79191 16.5301 9.10642 16.4604 9.42914 16.4299C9.73174 16.4299 10.0222 16.6176 10.3369 16.6645C10.8816 16.7677 11.4384 16.8146 11.9952 16.8991C12.1303 16.943 12.2599 16.9964 12.3826 17.0586L12.2373 17.4339C12.6125 17.6403 12.7941 17.3682 13.0362 17.3119L13.8714 17.1243L14.1619 17.4996L14.5613 16.8803L15.5539 17.0398C15.7354 17.0398 15.9049 17.1524 16.0622 17.1336C16.3573 17.1029 16.6576 17.1367 16.9292 17.2312C17.2008 17.3257 17.4329 17.4772 17.5994 17.6685C17.4905 17.3776 17.4421 17.2369 17.3937 17.0961C18.0957 17.2181 18.0957 17.2181 18.4104 17.6403C18.6525 17.3401 19.0398 17.4996 19.2698 17.4433L20.2987 17.7717L20.565 17.2181L21.2428 17.7999L22.4532 17.7342L22.6469 17.9594L24.0147 18.147C24.0147 17.9875 24.0147 17.8374 24.0147 17.6685H24.4988C25.0252 18.0733 25.6508 18.3923 26.3387 18.6068C26.4234 18.6068 26.5686 18.6068 26.6897 18.5036C26.6114 18.4891 26.5345 18.4703 26.4597 18.4473L26.2902 18.3816V18.1752C26.375 18.1752 26.4476 18.1189 26.4839 18.1752C27.2828 18.588 27.2828 18.5974 28.0817 18.5505C28.1885 18.6397 28.3016 18.7243 28.4206 18.8038L29.8368 18.8789C29.8368 18.8789 29.8973 18.7288 29.9578 18.6068L30.6841 18.7475L31.2651 18.1001C30.4299 18.1658 29.7036 17.7623 28.9411 18.1658L28.5416 17.7154L29.0863 17.2181L28.82 17.0023L29.28 16.7771C29.5463 17.0211 29.9094 16.7771 30.2362 16.8616L30.5267 17.0773L32.9475 17.3776C32.6691 17.1899 32.536 17.0398 32.4634 17.0586C31.9792 17.1806 31.6766 16.8615 31.253 16.7583C30.8644 16.6509 30.4844 16.5256 30.1152 16.383C30.1152 16.383 30.1152 16.3173 30.0425 16.2798L30.1999 16.1297L29.8368 15.9045L29.401 16.1203C29.3284 16.1203 29.2558 16.0546 29.2437 16.0171C29.1831 15.8106 29.1347 15.5948 29.0863 15.3509L29.2316 15.1069L28.5537 14.7879L28.8321 15.2664C28.7595 15.2664 28.6869 15.3321 28.6748 15.3227C28.2511 15.0694 27.5975 14.8348 27.5491 14.9286C27.6613 15.1245 27.8474 15.2894 28.0829 15.4017C28.3184 15.5139 28.5923 15.5681 28.8684 15.5573C28.4781 15.8272 27.9855 15.9917 27.4644 16.0264C27.2653 16.0206 27.0689 15.9889 26.8834 15.9326L26.7381 16.0546L26.0361 15.9232C25.9513 15.4353 25.2856 15.4729 24.9709 15.1069V14.7785C24.8342 14.7916 24.696 14.7916 24.5593 14.7785C24.4625 14.7785 24.3899 14.6941 24.3173 14.6565L24.0631 14.8911L25.2735 15.6417L24.3173 15.9232L23.7484 15.5479C23.5547 15.7449 23.4094 15.9045 23.3126 16.0171C23.6273 16.4581 24.1841 16.2141 24.632 16.2798C25.4307 16.3283 26.2027 16.5246 26.8834 16.8522C27.0649 16.9554 27.3312 16.9366 27.5612 16.9835C27.7912 17.0305 27.888 17.1055 28.0574 17.1618V17.3026L27.0407 17.1993L26.8712 17.5746L26.2418 17.1993L25.8545 17.4058V17.6403L26.2781 17.7717L25.3219 18.0157L25.0677 17.6779L25.8424 17.4058C25.8553 17.2988 25.8185 17.1918 25.7386 17.1041C25.6587 17.0163 25.541 16.9536 25.4066 16.9272L25.1525 17.1055C24.8862 16.8897 24.632 16.946 24.3536 17.1712L23.3731 16.4205L21.7512 15.8951C21.6349 15.9781 21.4869 16.0293 21.3296 16.0412C21.1724 16.053 21.0144 16.0248 20.8797 15.9608C20.2673 15.7508 19.6363 15.5752 18.9914 15.4353C17.9944 15.2375 17.043 14.921 16.1712 14.497V14.1968L17.0185 13.9153L17.1637 14.2155L19.294 14.4219L19.4998 14.2531C19.6935 14.4689 20.0203 14.4689 20.2624 14.5721C20.5045 14.6753 20.9402 14.5721 21.2428 14.6565L21.6301 14.938L22.0054 14.863L21.037 14.1498H20.5892L20.1776 13.8496L19.1972 13.9059V13.6713C19.8392 13.5228 20.5308 13.5767 21.1218 13.8214L21.4607 13.6338L22.1869 13.9153C22.9939 13.7741 23.8369 13.8232 24.6078 14.056H24.6683C25.0677 13.7088 25.4914 14.1592 25.8787 14.056C26.1208 13.9903 26.4839 14.2343 26.7986 14.3281V14.4595L25.915 14.3563C26.1104 14.5415 26.365 14.6838 26.6534 14.7691C26.9549 14.8509 27.262 14.9198 27.5733 14.9755V15.0412C27.6943 15.0131 27.9122 14.9943 27.6459 14.8348ZM12.5399 5.12332C12.762 5.15072 12.9749 5.21212 13.1661 5.30394C13.3573 5.39577 13.523 5.51618 13.6535 5.65816C13.133 5.65816 13.133 5.65816 12.4431 5.28284L12.5399 5.12332Z" fill="#8B5CF6"/>
<path d="M96.5791 16.505L97.0875 16.3736L97.2327 16.6551L98.4431 16.4487L98.7941 16.6082L98.891 16.2985C98.7942 16.2985 98.7458 16.2329 98.6973 16.2329C98.2154 16.2771 97.7269 16.2221 97.2811 16.0734C96.7645 15.9482 96.2244 15.8911 95.6834 15.9044L95.2839 15.6042C95.0175 15.6793 94.7416 15.7328 94.4609 15.7637C94.1603 15.763 93.8605 15.741 93.5651 15.698L93.202 15.4447C92.7784 15.1069 91.9916 15.2758 91.6043 14.6847C91.7979 14.6847 91.9674 14.5627 92.0521 14.6002C92.3305 14.741 92.6937 14.6002 92.9115 14.7316C93.1294 14.8629 93.3594 14.5908 93.6257 14.6471C93.9686 14.698 94.3176 14.7201 94.6666 14.7128L95.3566 14.2905L96.1676 14.4782L96.9543 13.9809C97.4627 14.0466 97.9832 14.2812 98.4915 13.9809C98.9636 14.2155 99.4962 13.9246 99.9804 14.0935C100.21 14.1369 100.446 14.1558 100.682 14.1498L100.743 13.6713C101.033 13.5774 101.324 14.0091 101.554 13.6244C101.808 13.8589 102.135 13.7182 102.438 13.7182C102.75 13.7185 103.061 13.6996 103.37 13.6619C103.672 13.6619 103.951 13.5774 104.41 13.5024C104.575 13.546 104.746 13.5713 104.919 13.5775C105.572 13.5775 106.238 13.493 106.892 13.4742C107.113 13.4868 107.333 13.5183 107.545 13.5681L108.139 13.2772C108.502 13.5868 108.913 13.1927 109.349 13.2772V12.8268C109.833 12.9582 110.305 13.1177 110.765 12.7705C111.092 12.8174 111.431 13.0801 111.818 12.7705C111.939 12.6673 112.242 12.6767 112.448 12.6954C112.944 12.6954 113.404 12.4609 113.9 12.611C114.312 12.2732 114.893 12.5359 115.304 12.3483C115.716 12.1606 116.345 12.2638 116.817 12.1137C117.653 11.9331 118.516 11.8354 119.383 11.8228L119.444 11.5695C118.463 11.5392 117.491 11.4131 116.551 11.1941C116.398 11.3235 116.186 11.4017 115.96 11.4122C115.735 11.4227 115.512 11.3647 115.341 11.2504L115.014 11.4663L114.481 11.1566L112.375 11.2786C112.133 11.2786 111.891 11.2786 111.685 11.4475C111.479 11.6164 111.31 11.4475 110.935 11.4006C110.749 11.464 110.554 11.5082 110.354 11.5319C109.7 11.5976 109.034 11.6164 108.381 11.6539C108.215 11.6843 108.053 11.7251 107.897 11.7759L107.243 11.6258C107.001 11.6258 106.698 11.7947 106.638 11.7384C106.347 11.4662 105.936 11.7384 105.597 11.5226C105.258 11.3067 104.931 11.5226 104.58 11.5226C104.229 11.5226 103.745 11.5226 103.37 11.4381C102.994 11.3537 102.51 11.6352 102.159 11.3724C101.965 11.5038 101.772 11.6351 101.518 11.3255C101.203 11.7196 100.61 11.4381 100.307 11.7571C100.089 11.485 99.7141 11.7571 99.4478 11.5882C99.1815 11.4194 98.9515 11.5132 98.6852 11.5882C98.4189 11.6633 98.31 11.7102 97.85 11.5882C97.7895 11.6445 97.7169 11.7477 97.6685 11.7477C97.0875 11.7477 96.4581 11.9823 95.9376 11.7477C95.8548 11.7107 95.7608 11.6912 95.6652 11.6912C95.5696 11.6912 95.4757 11.7107 95.3929 11.7477C95.0782 12.0762 94.7998 11.804 94.4972 11.7477L94.1703 11.9729L93.6499 11.6258L93.3836 11.7384C93.1294 11.7384 92.8389 11.7383 92.6694 11.7946C92.5 11.8509 92.1611 11.7947 91.8948 11.729C91.5922 11.9917 91.1806 11.9448 90.7812 11.9542C90.5724 11.9433 90.3629 11.9669 90.1668 12.0236C89.9706 12.0802 89.7922 12.1685 89.6434 12.2826C88.6024 12.2826 87.6704 11.7477 86.6174 11.8885C86.4282 11.9245 86.2453 11.978 86.0727 12.048L85.0922 11.8791L84.5476 11.485L83.8697 11.851L83.1435 11.5882L82.9256 11.7477L82.2599 11.4944H81.6426L80.6137 10.9408C80.2748 11.0159 79.9843 11.1566 79.7664 11.1097C78.8465 10.8845 77.8903 11.2035 76.9098 11.0253C76.87 11.0688 76.8254 11.1096 76.7767 11.1472C76.2217 10.9433 75.6518 10.7647 75.07 10.6124C74.4769 10.4998 73.9927 10.0494 73.2423 10.2652C73.2423 10.3497 73.2423 10.4435 73.2423 10.5373L73.6538 10.6968L73.9685 10.4717L75.1063 10.9596C74.5737 11.2692 74.5737 11.2223 73.9927 11.1754C73.1939 11.1191 72.395 11.1191 71.5719 11.1097C71.463 11.1097 71.3661 11.2129 71.2572 11.2598L71.0756 11.1379C70.4704 11.7478 69.7684 11.4193 69.0905 11.3161C68.9211 11.3161 68.6669 11.2598 68.5943 11.3161C68.3159 11.5695 67.8801 11.3161 67.638 11.5226C67.396 11.729 67.0934 11.5226 66.815 11.5226C66.4832 11.5236 66.1518 11.5392 65.8224 11.5695L65.5077 11.851L65.7498 12.1512C65.278 12.3414 64.778 12.4864 64.261 12.5829C63.7135 12.5984 63.1655 12.5669 62.6269 12.489C62.1784 12.4004 61.7409 12.2811 61.3197 12.1325C60.9555 12.2065 60.5683 12.166 60.2424 12.0199L59.9519 12.2169C59.4919 12.0855 59.0199 11.9354 58.5841 12.367C58.7465 12.4827 58.9376 12.5714 59.1457 12.6279C59.3538 12.6844 59.5746 12.7074 59.7945 12.6954C60.0286 12.7108 60.2599 12.7454 60.4845 12.7986C61.1231 12.904 61.7701 12.9761 62.4211 13.0145C62.518 13.0145 62.6269 12.9206 62.6995 12.8925C63.1958 12.8925 63.5831 13.2209 64.0915 13.2866C64.5999 13.3523 64.7088 13.5681 65.0356 13.6525C65.3624 13.737 65.7014 13.6525 66.004 13.7839C66.3066 13.9152 66.7423 13.7839 67.057 13.8871C68.1101 14.178 69.2479 13.9997 70.2646 14.4219L69.9378 14.5627L70.2041 14.7785C71.6259 14.7998 73.0188 15.0931 74.259 15.6324C74.6114 15.6744 74.9677 15.6933 75.3242 15.6886C75.6268 15.6886 75.8931 15.7637 76.1836 15.6886C76.4741 15.6136 76.934 15.6886 77.3093 15.623L77.624 15.8481C78.4107 15.9138 79.1491 15.9701 79.8996 16.0452C80.0448 16.0452 80.178 16.1484 80.4685 16.261C80.0085 16.4393 79.7301 16.5237 79.4033 16.261C79.4033 16.4299 79.4033 16.5707 79.3307 16.7114L78.9191 16.8897C78.4108 16.5519 77.9629 17.2087 77.2729 16.8897L77.043 16.6833L76.7888 16.9084L76.4136 16.7583L76.2804 16.8897L75.3605 16.3454C75.2362 16.3977 75.1009 16.4326 74.961 16.4487C74.7693 16.4399 74.5789 16.4179 74.3921 16.383C74.031 16.393 73.6696 16.371 73.3149 16.3173C72.8209 16.2963 72.3267 16.3538 71.8624 16.4862L71.475 16.2329L71.2693 16.4111L70.6883 16.2422C70.6883 16.3642 70.6157 16.4674 70.6883 16.4956C70.8062 16.604 70.9523 16.6918 71.1171 16.7533C71.282 16.8147 71.4617 16.8484 71.6445 16.8521C71.8382 16.8521 72.0318 16.9272 72.395 16.9929C72.2677 17.0651 72.1207 17.1136 71.9654 17.1348C71.8101 17.1559 71.6506 17.1491 71.4993 17.1149C70.8093 17.0023 70.1194 16.8991 69.4174 16.824C69.26 16.824 69.0905 16.9084 68.9332 16.946L67.9043 16.6739L67.6259 16.3173C67.4686 16.6176 67.3717 16.8146 67.2749 17.0117L68.3885 17.265L67.9164 17.4527L67.638 17.2556C67.3839 17.2556 67.0449 17.3307 66.8392 17.2556C66.6334 17.1805 66.355 17.4245 66.1976 17.1899C66.1976 17.2837 66.1976 17.3776 66.1976 17.509C65.8634 17.4754 65.5238 17.4982 65.202 17.5759C64.8802 17.6537 64.584 17.7845 64.3336 17.9593L63.8978 17.6591L63.4137 17.5934V17.4808H64.382L65.2777 17.1993C65.5924 17.4808 65.8466 17.0117 66.1613 17.1524L65.8103 16.7958L65.4714 17.0117L65.2535 16.8615C64.9388 16.9741 64.6362 17.2087 64.2126 17.0023C63.7889 16.7958 63.4379 17.0961 63.099 16.8427C62.6511 17.1055 62.6511 17.1055 62.1549 16.7865C62.3029 16.7254 62.4703 16.6983 62.6375 16.7083C62.8046 16.7183 62.9647 16.7649 63.099 16.8427L63.2926 16.5237C62.4172 16.6154 61.5266 16.5642 60.6781 16.3736L60.4966 16.5331C60.1698 16.4768 59.843 16.2422 59.4435 16.5331L60.5692 16.9835C60.7992 16.702 61.1865 16.8521 61.4528 16.7958L62.3969 17.3588C62.2517 17.8186 61.6828 17.8092 61.2712 17.8749C60.8597 17.9406 60.6055 17.6966 60.2666 17.6966C59.9425 17.7274 59.6274 17.8004 59.3346 17.9124L58.8504 17.4714C57.5034 17.194 56.1376 16.9747 54.7592 16.8146L54.2871 16.3924H53.8635L53.7303 16.139L52.6531 15.9983C53.0368 16.3596 53.5251 16.6456 54.0782 16.8331C54.6313 17.0206 55.2338 17.1043 55.8365 17.0773C56.0096 17.1896 56.1714 17.312 56.3206 17.4433C56.3604 17.5077 56.3811 17.5783 56.3812 17.6497H56.8411L57.2042 17.9124L57.3616 17.8092C57.7126 17.9593 58.2331 17.8092 58.572 18.2877C57.8903 18.1805 57.1976 18.1209 56.5022 18.1095C55.8607 18.1095 55.2071 17.9031 54.5534 18.1845L54.154 18.1001L54.0693 18.2127C54.2387 18.3816 54.4203 18.5411 54.5898 18.7006H55.195L55.6307 19.0759L55.1344 19.1885L55.4613 19.5169L56.5022 19.2073L55.8728 18.8789V18.4848L57.3858 18.9821C57.3858 19.1134 57.3858 19.2448 57.3858 19.3762H57.761L57.5553 19.1135L58.2089 18.9915L57.519 18.7381L58.0515 18.4848C58.8265 18.5512 59.5948 18.6578 60.3513 18.8038L60.1698 19.1885L60.4966 19.2448L60.6539 18.907H60.9444C61.0171 18.8507 61.1018 18.7381 61.1744 18.7475C61.3779 18.7855 61.5735 18.8455 61.7554 18.9258L61.5012 18.588L61.7917 18.5317L61.937 18.832H62.3727C62.4332 18.7381 62.4817 18.6255 62.5664 18.466L63.1958 18.8601L62.4938 19.0853L63.7042 19.7515C64.0915 19.5545 63.7889 19.4419 63.6316 19.2917C63.9705 19.2917 64.261 19.1322 64.5273 19.3668C64.7572 19.0853 65.0235 19.1416 65.3019 19.3105L65.4593 18.9727C65.7377 19.0478 65.9071 19.1322 65.9556 19.3762C66.0286 19.5347 66.1395 19.6811 66.2824 19.8078L66.1855 20.3239H66.2824L66.5971 19.8641C67.2023 20.1081 67.8075 19.8641 68.4127 19.9392L68.4853 20.1456C68.5458 20.1456 68.5943 20.2019 68.6427 20.2019C69.127 20.126 69.6304 20.1893 70.0589 20.3802C70.2646 20.4834 70.6278 20.3802 70.9546 20.3802C70.7367 19.9486 70.3373 20.155 70.0104 20.0893L69.6957 19.714L68.7637 19.4982C69.2237 19.1979 69.5505 19.6671 69.9015 19.4982L69.9983 19.789L70.9183 19.7327L70.652 19.47L71.2935 19.4043L71.1119 19.6389C71.4629 19.9392 71.9108 19.8547 72.3223 19.8266L72.7218 20.1081H73.3149L72.516 19.6671C72.8307 19.4325 73.1696 19.5451 73.3875 19.4982L74.8158 20.1925L75.7478 20.1456L76.1352 20.4083H76.7283L75.9415 20.0048L76.1231 19.5545C76.462 19.7984 76.692 19.9579 76.9098 20.1268C77.3093 19.9485 77.3335 20.3145 77.5392 20.3895C77.745 20.4646 78.0234 20.4928 78.326 20.5491V20.1268L77.6724 19.789L77.9871 19.4419L79.0159 19.3856L79.0886 19.592L78.6286 19.8078C78.8295 19.8056 79.0297 19.8277 79.2217 19.8735C79.3877 19.9395 79.5422 20.0215 79.6817 20.1175C79.609 19.8735 79.7543 19.7327 80.069 19.5826L80.9284 19.8547L81.0979 19.714L81.231 19.9861L81.8725 19.789L81.9573 19.5357L82.9861 19.4794L83.1314 19.7703L83.4098 19.714L83.1919 19.3856L84.4023 19.8172C84.5915 19.7029 84.8202 19.6348 85.0594 19.6214C85.2986 19.608 85.5375 19.65 85.7459 19.7421L86.2543 19.5451L86.9078 20.0236L87.0168 19.9579L86.7868 19.5357C87.1379 19.5826 87.4889 19.7234 87.731 19.6389C87.973 19.5545 88.2998 19.4137 88.6145 19.5826C88.8687 19.3105 89.2682 19.4888 89.5708 19.3949C89.8734 19.3011 90.1518 19.1791 90.4665 19.0572L90.6723 19.1979L90.9749 19.0665L91.8221 19.1604L92.1974 19.4325L92.27 19.1229C93.3326 19.0288 94.4079 19.07 95.4534 19.2448C95.4534 19.0947 95.4534 18.9727 95.4534 18.8226L94.5819 18.3722L95.2476 18.2502C95.1508 18.0625 95.054 17.903 94.8966 17.6028L95.5624 17.828C95.4897 17.9781 95.4292 18.0813 95.3203 18.2596H95.877L96.1554 18.785C96.232 18.8153 96.3134 18.8374 96.3975 18.8507C96.8454 18.8507 97.3053 18.71 97.7411 18.9258C97.959 19.0384 98.1769 18.6443 98.431 18.9258C98.7942 18.5974 99.2057 18.832 99.6415 18.8507C99.8188 18.8604 99.9967 18.8604 100.174 18.8507L100.235 18.588L100.791 18.6631L101.384 18.785L101.857 18.3347L101.651 18.1845L99.823 18.0344L99.6898 17.7717C99.0241 18.0157 99.0241 18.0156 98.1768 17.5746C98.039 17.4874 97.87 17.4351 97.6927 17.4245C96.9543 17.4808 96.3733 17.0117 95.635 17.0398C95.526 17.0398 95.405 16.8803 95.2718 16.7771C94.7393 16.7771 94.1341 16.9554 93.5894 16.5707C93.9888 16.4674 94.4004 16.5707 94.7998 16.3361C94.9189 16.2767 95.0576 16.2451 95.1992 16.2451C95.3409 16.2451 95.4795 16.2767 95.5987 16.3361C95.7333 16.3979 95.8932 16.4177 96.046 16.3915C96.1988 16.3654 96.3331 16.2953 96.4217 16.1953L96.5791 16.505ZM89.3166 18.2127V18.3159L88.7114 18.5411C88.3725 18.3159 88.2272 17.8937 87.731 17.9687L87.4162 18.1564L86.6174 17.7811C87.622 17.1993 88.2151 17.8467 88.8808 18.1939C88.9744 18.1904 89.0678 18.2019 89.1553 18.2277C89.2428 18.2535 89.3225 18.2932 89.3892 18.344L89.6918 18.4473V18.025C89.8658 18.0431 90.0278 18.1039 90.1541 18.1984C90.2804 18.2929 90.3644 18.4163 90.3939 18.5505C90.1397 18.8789 89.7523 18.7569 89.4134 18.7944L89.1229 18.588C89.2404 18.4827 89.3124 18.3514 89.3287 18.2127H89.3166ZM97.2811 18.5317C97.1564 18.4716 97.0222 18.4243 96.8817 18.391C96.6321 18.3724 96.3808 18.3724 96.1313 18.391L96.6275 18.0532C97.039 17.9593 97.5353 18.1282 97.8379 17.8467L98.3221 18.025L97.8863 18.6349L97.7048 18.2596L97.2811 18.5317ZM93.3231 18.1282L93.202 18.2596C92.9357 18.1001 92.5 18.3722 92.2579 17.95L92.7058 17.6216L93.3231 18.1282ZM64.3578 18.4942L64.5515 18.9164H64.4546L64.1036 18.6349L63.6073 18.5786V18.5036L64.3578 18.4942ZM69.6836 18.785C69.3326 18.8601 69.0784 18.8507 68.8969 18.5599C68.9679 18.5318 69.0456 18.5153 69.1252 18.5115C69.2048 18.5077 69.2845 18.5166 69.3595 18.5378C69.4344 18.5589 69.5029 18.5917 69.5608 18.6343C69.6186 18.6768 69.6646 18.7282 69.6957 18.785H69.6836Z" fill="#8B5CF6"/>
<path d="M74.4165 7.33778L74.0655 7.07505C73.666 6.98122 73.2424 7.19705 72.855 6.97185C72.7439 6.92421 72.619 6.89921 72.4919 6.89921C72.3649 6.89921 72.24 6.92421 72.1288 6.97185C71.9742 7.06276 71.7886 7.11653 71.595 7.12654C71.4014 7.13655 71.2082 7.10234 71.0394 7.02815C70.9426 7.02815 70.7852 7.11261 70.6642 7.15953L69.6838 6.9531C69.248 7.31904 68.4733 6.9531 68.1223 7.47855L68.3523 7.84447C69.127 8.28548 70.1195 8.24796 70.7731 8.88601C71.5841 8.88601 72.4072 9.29885 73.4966 9.1018C73.7871 9.1018 74.0292 9.51467 74.5254 9.52405C74.9403 9.56145 75.3471 9.6403 75.7358 9.75863L75.9416 9.5991C76.7647 9.77738 77.7209 9.59911 78.435 10.2184H79.0766V9.71172C79.583 9.99445 80.1958 10.1396 80.8196 10.1246L80.5533 9.89937C80.9406 9.64603 81.0375 10.1246 81.3038 10.0683L82.8047 9.83368L83.7125 10.2841C84.2935 10.2841 84.9229 10.0683 85.516 10.575C85.604 10.4876 85.7012 10.406 85.8065 10.331C85.8809 10.3 85.9641 10.2839 86.0486 10.2841V9.89937C86.3028 9.63664 86.4843 10.1339 86.799 9.89937C87.1137 9.66479 87.3316 9.89937 87.61 9.89937C87.89 9.89969 88.1695 9.88086 88.4452 9.84307C88.7259 9.78652 89.001 9.71438 89.2683 9.62725L89.6435 9.88061C90.097 9.87194 90.5487 9.92922 90.975 10.0495C91.326 10.2278 91.5923 9.95567 91.8707 10.0495C92.0159 9.88061 92.137 9.89937 92.3306 10.0495C92.5243 10.1996 92.6212 10.0495 92.7664 10.0964C92.839 9.768 93.1658 9.69294 93.4079 9.58035C93.65 9.46775 93.6137 9.80553 93.7952 9.62725C93.9768 9.44897 94.0252 9.68355 94.1584 9.68355C94.3115 9.69267 94.4653 9.69267 94.6183 9.68355C94.7757 9.68355 94.9936 9.68355 95.0904 9.68355C95.5867 9.28008 96.1313 9.62726 96.6276 9.63664C96.8697 9.63664 97.0876 9.76801 97.3055 9.63664C97.5597 9.87122 97.6686 9.47714 97.9349 9.5522C98.1792 9.5844 98.4288 9.5844 98.6732 9.5522L99.3995 9.5053V9.39267L98.1891 9.14873L97.8623 9.31762L97.487 8.9986C97.5476 8.90477 97.5718 8.82971 97.6081 8.82971C97.9228 8.76403 98.2859 8.88601 98.5643 8.62328C98.6248 8.56699 98.8548 8.62328 99 8.62328C99.2148 8.70116 99.4542 8.72843 99.6888 8.70174C99.9233 8.67506 100.143 8.59558 100.319 8.47315L101.021 8.73588L102.062 8.67958L101.312 8.38871L102.147 8.09783L103.866 8.29487C103.563 8.07906 103.188 7.97585 103.079 7.61929C103.83 7.3378 104.58 7.57237 105.5 7.61929C105.004 7.25335 104.713 6.99999 104.217 6.99061C103.766 6.96478 103.318 6.92095 102.873 6.85926C102.671 6.72215 102.422 6.63257 102.156 6.601C101.891 6.56943 101.619 6.59717 101.372 6.68098C101.102 6.73229 100.82 6.73229 100.549 6.68098C100.335 6.61917 100.103 6.60052 99.8769 6.62678C99.6504 6.65303 99.4362 6.72333 99.2542 6.83111C98.9637 6.83111 98.6611 6.52147 98.419 6.83111L97.366 6.46516C97.0383 6.6014 96.678 6.68418 96.3075 6.70838C95.9369 6.73259 95.5639 6.69771 95.2114 6.6059C94.9852 6.7297 94.718 6.80081 94.4413 6.81078C94.1647 6.82076 93.8901 6.76921 93.65 6.66223L93.4079 6.86863C93.2593 6.80342 93.1007 6.753 92.9359 6.71852C92.5354 6.66713 92.1311 6.63579 91.7254 6.62469C91.3488 6.62791 90.9728 6.64985 90.5998 6.69037C89.951 6.66358 89.3024 6.74681 88.6994 6.93431C88.5541 7 88.2999 6.93431 88.0094 6.93431L87.259 7.22519C87.1779 7.1719 87.0835 7.13213 86.9817 7.10836C86.8798 7.08458 86.7728 7.07731 86.6672 7.087C86.5616 7.09668 86.4597 7.12309 86.3678 7.16462C86.276 7.20616 86.1962 7.26192 86.1333 7.32842L85.9396 7C85.6734 7 85.4676 7.35656 85.0681 7.12199C84.8624 6.99062 84.475 7.12198 84.1966 7.02815C83.998 6.96483 83.7812 6.94361 83.5685 6.9667C83.3558 6.98979 83.1548 7.05635 82.9862 7.15953C82.7562 7.15953 82.4415 6.82172 82.1389 7.23458L81.8 6.88741C81.6072 7.0204 81.3647 7.10213 81.1077 7.1207C80.8508 7.13927 80.5929 7.09368 80.3717 6.99061C80.2301 7.06665 80.0752 7.12668 79.9118 7.16889C79.3901 7.16079 78.8729 7.2442 78.3987 7.41286C78.3272 7.44018 78.2485 7.45438 78.1688 7.45438C78.089 7.45438 78.0104 7.44018 77.9388 7.41286C77.5515 7.25335 77.1278 7.41285 76.7284 7.30963C76.3341 7.22755 75.9231 7.20527 75.518 7.24397L74.4165 7.33778ZM91.0113 8.95167L91.6891 9.27072V9.38331L90.7571 9.18625L91.0113 8.95167Z" fill="#8B5CF6"/>
<path d="M26.0362 4.53217C25.7173 4.57993 25.3888 4.57365 25.0733 4.51372C24.7578 4.4538 24.4628 4.34165 24.2085 4.185H23.4701L22.8407 3.66894L21.8724 3.46251L21.4971 3.96918L20.2867 3.82843L20.0204 3.59386C19.8752 3.65016 19.7663 3.71585 19.6452 3.75338C19.5221 3.77929 19.3967 3.7981 19.27 3.80968C19.27 3.92228 19.3426 4.03485 19.391 4.05362C19.8752 4.14745 20.202 4.54155 20.7709 4.50402C20.9283 4.50402 21.1098 4.82305 21.3519 5.06701C20.4804 4.94503 19.6089 5.06701 19.0884 4.42897H18.6285C18.5195 4.81367 18.4227 5.18899 18.2896 5.63L20.5046 6.35248L20.8314 6.14606C21.0134 6.32192 21.2539 6.45594 21.5269 6.53366C21.8 6.61137 22.0952 6.62983 22.3808 6.58706C22.5018 6.58706 22.6349 6.69028 22.8044 6.76534L23.1312 6.35248L23.5912 6.66214L23.7848 6.49322C24.6315 6.61154 25.4486 6.83325 26.2057 7.15005C26.5809 7.15005 27.1135 6.99992 27.5977 7.2345C27.61 7.24137 27.6248 7.24506 27.64 7.24506C27.6552 7.24506 27.67 7.24137 27.6824 7.2345C28.1792 7.09968 28.7074 7.04849 29.2317 7.08436L28.6144 6.80288C28.7354 6.75597 28.796 6.69966 28.8686 6.70905C29.0455 6.70767 29.2206 6.73635 29.3816 6.79309C29.5426 6.84983 29.6856 6.93325 29.8006 7.03746L29.6311 7.2345C29.9822 7.38462 30.3574 7.15006 30.7205 7.36587C31.0837 7.58168 31.3015 7.21572 31.6768 7.30955C32.0806 7.35062 32.4907 7.33473 32.8872 7.26264C32.3667 6.84979 31.6041 7.0656 31.1321 6.65275L31.9188 6.38063L32.8388 6.79349H33.5045L33.8918 7.09375L34.5454 6.96238L34.6907 7.18759C35.3117 7.15471 35.9281 7.29073 36.4337 7.57227C37.1122 7.87322 37.8955 8.00125 38.673 7.93823C39.4793 7.90433 40.2874 7.90433 41.0938 7.93823C41.2736 7.93748 41.4484 7.98377 41.5901 8.0696C41.6561 8.11986 41.7368 8.15714 41.8252 8.17836C41.9136 8.19958 42.0073 8.20409 42.0984 8.19156C42.3889 8.19156 42.7158 8.08836 42.9699 8.29479C43.2483 8.07898 43.563 8.29479 43.8535 8.29479C44.144 8.29479 44.3982 8.47307 44.725 8.41677C44.8302 8.41306 44.935 8.42803 45.0315 8.46055C45.128 8.49308 45.2136 8.54229 45.2818 8.60442C45.536 8.82961 45.8749 8.74518 46.1654 8.77333C46.546 8.80705 46.9176 8.88618 47.2669 9.00791C47.6697 9.17035 48.1374 9.20726 48.5742 9.11111L47.9448 8.77333C48.2958 8.49184 48.7557 9.20494 48.9736 8.64196C49.1768 8.80055 49.3555 8.97688 49.5062 9.16741C49.6151 9.36445 49.4457 9.64594 49.6878 9.74915C49.9298 9.85237 50.4503 9.74915 50.8256 9.92743C51.2008 10.1057 51.4308 10.3591 51.8544 10.528C52.0431 10.549 52.2346 10.549 52.4233 10.528C52.6533 10.4529 52.8591 10.7344 53.0406 10.528C53.2222 10.3215 53.4037 10.6499 53.6095 10.603L54.4447 10.4154L54.6868 10.5373L55.4372 10.2558L56.3935 10.3028V9.94622L56.1756 10.1057L55.0741 9.8336C55.0741 9.33629 55.5825 9.43953 55.9093 9.27063C56.0722 9.30265 56.2382 9.32459 56.4056 9.33629C56.8544 9.32889 57.2962 9.42349 57.6765 9.60841C57.9388 9.70628 58.2217 9.76668 58.5117 9.78669C58.9461 9.86192 59.3966 9.86192 59.831 9.78669L59.008 9.55212L59.3832 9.42074C59.3832 9.30814 59.3832 9.18618 59.3832 9.05481C59.3832 8.92345 59.4921 8.98913 59.5406 8.98913C59.9279 8.98913 60.3031 9.04542 60.751 9.07357C60.562 8.92626 60.3309 8.81554 60.0765 8.75034C59.822 8.68513 59.5513 8.66728 59.2864 8.69825L58.8748 8.24785H58.2938L58.1849 8.00391C57.6968 7.81421 57.1573 7.71768 56.6113 7.7224C56.1514 7.35646 55.5099 7.85377 55.0499 7.51598C54.4205 8.02266 53.6095 7.37525 52.9559 7.74119L52.6049 7.47846L52.4354 7.6192L50.2809 7.42217L50.2203 7.70365C50.5229 7.84439 51.0071 7.55352 51.1887 7.96637L49.8572 8.26664L49.3609 7.95698C49.0583 8.08834 48.7678 8.29478 48.3684 8.10711C48.0169 7.97327 47.6527 7.86036 47.279 7.76934H47.1217L44.7008 7.15944L44.6282 7.2251L42.2074 6.84039L42.0621 6.69029C41.5414 6.67218 41.0254 6.60601 40.5249 6.49322C40.1255 6.35248 39.7018 6.54952 39.3145 6.34309C39.1469 6.26118 38.9588 6.20792 38.7626 6.18689C38.5664 6.16585 38.3666 6.17754 38.1767 6.22114C37.6562 6.33373 37.1236 6.39941 36.591 6.51201C36.5063 6.51201 36.47 6.58707 36.3248 6.51201C35.4048 6.3525 34.4607 6.30558 33.5408 6.1273C33.453 6.11313 33.3623 6.11313 33.2745 6.1273L31.9915 5.41418C31.3951 5.44326 30.7975 5.37618 30.2364 5.21714C29.5833 5.04273 28.8924 4.9694 28.2029 5.00132C27.9619 5.00585 27.7237 4.96052 27.5129 4.86997C27.2708 4.80429 26.9561 4.80427 26.7867 4.67291C26.6172 4.54154 26.1088 4.86057 26.0362 4.53217ZM24.6926 5.84579C25.6998 5.95959 26.6921 6.14171 27.6582 6.39002C27.6582 6.39002 27.6582 6.39002 27.6582 6.47447L27.5734 6.65275L27.3677 6.51201L27.174 6.66214L26.823 6.39939C26.4962 6.32432 26.1573 6.512 25.8426 6.29619C25.5278 6.08038 25.1042 6.24926 24.8258 6.10852C24.2709 5.90593 23.6446 5.85311 23.0465 5.95841C23.0465 5.95841 22.9497 5.95838 22.8891 5.90209L23.107 5.55492C22.8528 5.47047 22.5139 5.55492 22.526 5.20775L24.1237 5.46108L24.6926 5.84579ZM52.8954 9.20495C53.0511 9.25161 53.2138 9.28313 53.3795 9.29878C53.5609 9.30836 53.7429 9.30836 53.9242 9.29878L54.2268 9.51458L53.6458 9.80545C53.4037 9.58025 52.8833 9.66472 52.8954 9.20495ZM27.7429 6.86854V7.03746L26.4115 6.98116V6.69965L27.7429 6.86854ZM51.5881 9.79608L50.8256 9.53336L51.4792 9.26124L51.5518 9.31754L51.5881 9.79608Z" fill="#8B5CF6"/>
<path d="M150.588 8.13528H151.447L151.266 8.3511C151.266 8.3511 151.338 8.41677 151.387 8.42615C151.895 8.54813 152.452 8.42617 152.948 8.65136C153.007 8.67181 153.071 8.68237 153.136 8.68237C153.2 8.68237 153.264 8.67181 153.323 8.65136C153.628 8.52186 153.965 8.44478 154.312 8.42535C154.659 8.40592 155.007 8.44461 155.333 8.53877C155.521 8.56148 155.713 8.56148 155.901 8.53877L156.265 8.19157L157.185 8.25726C157.717 7.98515 158.734 8.08838 159 7.1876L157.693 6.93424L158.104 6.3994L157.451 6.3525L157.887 6.15546C157.378 5.93965 157.378 5.93965 157.209 5.47988H156.821C156.683 5.18597 156.429 4.93321 156.095 4.75736C156.095 4.29759 155.671 4.20376 155.296 4.05363L155.502 3.83784C155.381 3.70648 155.248 3.5751 155.078 3.41559L155.623 3.06842L154.836 2.72125C154.67 2.8271 154.473 2.90097 154.263 2.93684C154.053 2.97271 153.834 2.96957 153.626 2.92768L154.437 2.58988V2.47728H153.65C153.214 2.69309 153.384 2.97458 153.348 3.26546C152.851 3.38744 152.524 3.15287 152.137 2.92768L152.379 2.59927C151.592 2.48667 150.83 2.05506 150.043 2.55236L149.801 2.40223C149.305 2.70249 149.486 3.21857 149.256 3.61266L149.486 3.8566C148.886 4.1468 148.183 4.28457 147.477 4.2507C147.32 4.39144 147.174 4.53217 147.005 4.70107H147.465L146.981 5.16086C147.126 5.27345 147.162 5.32975 147.199 5.32975L148.409 5.26406L149.51 5.82705L148.603 5.88334C148.675 5.96779 148.7 6.03348 148.724 6.03348C149.268 5.96779 149.837 6.03348 150.346 5.7989C150.467 5.72383 150.685 5.7989 151.096 5.7426L150.334 6.3525L151.544 6.6903L150.636 7.08438L151.12 7.23451L150.963 7.42218L151.786 7.69427C151.387 7.77872 150.927 7.76934 150.588 8.13528ZM153.856 7.39403L154.098 7.11252C154.316 7.36587 154.51 7.27204 154.679 7.11252C154.872 7.17688 155.055 7.25878 155.224 7.35649C155.308 7.41279 155.321 7.54414 155.405 7.69427L153.856 7.39403Z" fill="#8B5CF6"/>
<path d="M55.6793 12.0106C55.2167 12.1004 54.7293 12.0742 54.2873 11.9355C53.9008 11.8242 53.4829 11.795 53.0769 11.8511L51.5276 11.9355C51.3685 11.8197 51.1721 11.7394 50.959 11.7031C50.7459 11.6667 50.5242 11.6757 50.3171 11.7291C50.6803 11.9167 51.0192 12.2076 51.3944 12.2357C51.8146 12.3297 52.2205 12.4587 52.6048 12.6204C52.9922 12.7143 53.4037 12.7612 53.8152 12.8457C54.2873 12.9082 54.7647 12.9427 55.2435 12.9489L55.9577 12.6861L56.5508 12.9676L58.8264 13.3054L57.386 12.2733L56.1756 12.339L55.6793 12.0106Z" fill="#8B5CF6"/>
<path d="M73.2421 10.5655H72.8306L73.0363 10.3309L71.3781 10.1714L71.015 9.90867L70.8334 10.0682L70.4945 9.82423L69.8166 9.99312L68.3642 9.29878C67.9042 9.55212 67.3716 9.45829 66.8632 9.50521C66.3548 9.55212 65.8102 9.57088 65.0476 9.60841C65.2478 9.71723 65.463 9.8085 65.6891 9.88053C66.1854 9.96497 66.6453 10.0494 66.6332 10.5749L67.3474 10.6968V10.4717L66.7785 10.4247C66.9722 10.2934 67.1658 10.1808 67.4684 9.99312C68.109 10.0595 68.7437 10.1567 69.3688 10.284C69.7319 10.3966 70.1798 10.284 70.5792 10.481C70.9786 10.6781 71.3418 10.5655 71.6928 10.6593C72.0438 10.7531 72.6127 11.0534 73.2058 10.8282L73.2421 10.5655Z" fill="#8B5CF6"/>
<path d="M54.7833 13.6244C54.4565 13.7557 54.2023 13.8777 53.936 13.9715C53.6697 14.0654 53.4397 13.9152 53.1734 14.0372C52.9071 14.1592 52.5682 14.2624 52.3624 14.1873C52.1567 14.1123 51.9267 14.4125 51.6241 14.3093C51.3576 14.2075 51.0611 14.1622 50.7647 14.178C50.4646 14.1669 50.1677 14.1259 49.8811 14.056V14.3187C51.0162 14.3703 52.1449 14.4864 53.2582 14.6659L53.5729 14.3656C53.655 14.4029 53.7453 14.4284 53.8392 14.4407C53.9239 14.4407 53.9965 14.3281 54.0691 14.3281C54.3838 14.3281 54.7107 14.4032 55.0375 14.4219C55.3643 14.4407 55.6185 14.3468 55.9211 14.5251C56.2237 14.7034 56.5021 14.7034 56.5626 14.6377C56.8047 14.3844 56.9862 14.6377 57.192 14.6377C57.8783 14.5864 58.5706 14.6603 59.2134 14.8535C59.5669 14.9335 59.9387 14.9528 60.3028 14.9098L60.3633 14.6471H59.4555V14.5814C58.9471 14.4782 58.4387 14.4032 57.9425 14.2718C57.2404 14.0935 56.5021 14.0935 55.7879 13.9622C55.219 13.8402 55.2069 13.8965 54.7833 13.6244Z" fill="#8B5CF6"/>
<path d="M55.1225 19.3479C53.6337 18.9632 53.1132 18.935 52.7017 19.1227C52.387 18.8412 52.7985 18.616 52.7985 18.3533L53.44 18.5879L53.6942 18.3626C53.6095 18.3063 53.5369 18.2032 53.44 18.1844C53.1495 18.1375 52.8227 18.1844 52.6533 17.8747H52.0239L51.7697 18.1938L50.063 17.9686C50.1961 18.1844 50.414 18.2688 50.5714 18.419C51.1039 18.419 51.6607 18.3251 52.0602 18.8037L51.8786 19.0476L52.617 19.4136C53.0106 19.3119 53.416 19.2396 53.8274 19.1978C54.2648 19.2118 54.6989 19.2622 55.1225 19.3479Z" fill="#8B5CF6"/>
<path d="M44.604 17.8185L44.7492 17.6215L44.3498 17.3494L44.4224 17.2555C44.5391 17.29 44.6612 17.3121 44.7855 17.3212C44.8982 17.3308 45.0118 17.3308 45.1244 17.3212V17.1054L44.023 16.7864L43.9019 17.1148C43.5002 16.865 43.0007 16.7289 42.4857 16.7289C41.9708 16.7289 41.4712 16.865 41.0695 17.1148L39.4839 16.4768L39.3992 16.7489L40.7911 17.3494L42.3526 16.9459V17.0585L43.4299 17.3494C43.5388 17.462 43.684 17.6403 43.8656 17.8467L44.604 17.8185Z" fill="#8B5CF6"/>
<path d="M97.4021 15.2476C97.5411 15.3881 97.7284 15.4952 97.9426 15.5566C98.1568 15.6181 98.3891 15.6313 98.6125 15.5947C98.9393 15.5291 99.2298 15.7355 99.593 15.5947C99.9561 15.454 100.259 15.5291 100.803 15.5009L100.247 15.1913L99.6051 14.4219C99.4245 14.5836 99.1953 14.7084 98.9378 14.7853C98.6802 14.8623 98.4023 14.8889 98.1284 14.8629L97.4021 15.2476Z" fill="#8B5CF6"/>
<path d="M46.3708 18.5411L45.572 18.1377L46.1893 18.0626L45.6688 17.6216L45.4872 17.95L44.6157 17.8468L44.8699 18.1564L44.3252 18.0626L43.5264 18.6068L44.3737 18.7757C44.4615 18.7896 44.5521 18.7896 44.6399 18.7757C44.9062 18.7288 45.1241 18.4098 45.4509 18.6631C45.7051 18.5505 45.9472 18.7288 46.1893 18.6631L46.3708 18.5411Z" fill="#8B5CF6"/>
<path d="M110.426 16.9646C110.426 17.1241 110.426 17.1804 110.426 17.2648L109.542 17.3211L109.373 17.0021L108.465 17.7246C108.199 17.4994 107.908 17.6214 107.473 17.6496L108.393 17.9686L108.114 18.2876L108.719 18.0624L108.865 18.175L109.228 17.8841L110.353 17.9873L110.087 17.49L111.128 17.4243L110.426 16.9646Z" fill="#8B5CF6"/>
<path d="M150.564 7.99457C150.564 8.25729 150.503 8.39804 150.479 8.55756H149.777V8.47311L150.321 8.35113C150.002 8.27333 149.662 8.26363 149.336 8.32307C149.01 8.3825 148.711 8.50888 148.469 8.6889L149.438 8.48248C149.385 8.58566 149.316 8.68339 149.232 8.77338C148.917 8.97981 148.917 8.97041 148.929 9.43018C149.158 9.33696 149.402 9.27056 149.656 9.23314C149.928 9.26643 150.193 9.3296 150.442 9.42078C150.067 9.07361 150.067 9.07363 149.462 8.99856L149.934 8.87658L149.813 8.79213L150.636 8.87658L150.902 8.36052L150.564 7.99457Z" fill="#8B5CF6"/>
<path d="M32.3787 18.4191L32.6571 18.8413C32.9208 18.7988 33.1931 18.8003 33.4561 18.8455C33.719 18.8908 33.9665 18.9789 34.1822 19.104L35.0053 18.6911V18.2783C34.7873 18.3458 34.5597 18.393 34.3274 18.4191C34.1459 18.4191 33.9522 18.3346 33.7585 18.344C33.5788 18.3924 33.4079 18.4586 33.2502 18.541C33.1896 18.4097 33.1533 18.3252 33.1049 18.2408C33.0565 18.1563 32.9839 18.2408 32.9112 18.2971L32.6571 18.3627L32.3787 18.4191Z" fill="#8B5CF6"/>
<path d="M39.0601 18.0157C39.7984 18.0813 40.1495 18.7382 40.9968 18.4473C40.7498 18.2586 40.4733 18.0946 40.1737 17.9594C39.8832 17.8562 39.4353 17.9594 39.2417 17.8092C39.048 17.6591 38.5396 17.8749 38.3096 17.6122C38.0312 17.6967 37.7649 17.9312 37.426 17.5184C37.426 17.7717 37.426 17.8937 37.426 18.0251L37.9828 18.2315C38.3581 17.9312 38.818 18.0438 39.0601 18.0157Z" fill="#8B5CF6"/>
<path d="M36.8088 18.5505L36.9661 18.8601C37.3534 19.0197 37.5592 18.7006 37.8255 18.6349L37.5834 18.2784L37.0145 18.4942L37.2687 17.8186L36.4214 17.8655L36.6877 18.269L35.4773 18.588C35.5664 18.6555 35.6723 18.7082 35.7885 18.743C35.9048 18.7778 36.0289 18.794 36.1534 18.7904C36.2779 18.7869 36.4002 18.7639 36.5128 18.7226C36.6255 18.6814 36.7262 18.6228 36.8088 18.5505Z" fill="#8B5CF6"/>
<path d="M40.561 14.2531L42.5824 14.4783L42.7761 14.3L43.7807 14.6284L44.1802 14.3282L43.8776 14.103L43.6476 14.3C43.5351 14.2359 43.4132 14.1823 43.2845 14.1405C43.0635 14.0752 42.8307 14.0373 42.5945 14.0279C42.4142 14.0287 42.2364 14.0608 42.0741 14.1217C41.832 14.1968 41.6262 14.1217 41.4083 14.1217L40.561 14.1687V14.2531Z" fill="#8B5CF6"/>
<path d="M45.6082 13.4742L46.4191 13.9152L47.6296 14.009L48.2348 13.8026C48.2348 13.8026 48.2348 13.7088 48.1742 13.7088C47.8837 13.7088 47.6417 13.5305 47.3148 13.5774C47.0508 13.5783 46.7887 13.5434 46.5402 13.4742L45.6324 13.3616L45.6082 13.4742Z" fill="#8B5CF6"/>
<path d="M31.3253 4.85107C30.8411 4.85107 30.829 4.36316 30.5385 4.18488C29.9562 4.00229 29.3052 4.00229 28.7229 4.18488C29.7275 4.25995 30.4296 4.74786 31.3253 4.85107Z" fill="#8B5CF6"/>
<path d="M128.704 14.4126L129.164 14.1968L129.539 14.3563L129.926 14.1405L130.241 14.3188L131.246 13.9059C130.337 13.7807 129.4 13.9034 128.595 14.2531L128.704 14.4126Z" fill="#8B5CF6"/>
<path d="M40.6699 14.0371L38.3338 13.9151L38.0554 13.643L37.4744 13.9151L38.4306 14.0934L39.5563 14.328C39.7581 14.3474 39.9631 14.3313 40.1558 14.2809C40.3486 14.2306 40.5243 14.1472 40.6699 14.0371Z" fill="#8B5CF6"/>
<path d="M102.982 17.387L103.358 17.9594L104.157 17.7811L104.544 18.2502H104.992C104.992 18.1752 104.992 18.1095 104.992 18.0814C104.857 17.9104 104.666 17.7706 104.439 17.6765C104.211 17.5824 103.954 17.5375 103.697 17.5465C103.45 17.5182 103.21 17.4646 102.982 17.387Z" fill="#8B5CF6"/>
<path d="M51.5758 19.301L51.249 18.7568L50.1596 18.5598L49.8449 18.1845H49.6028L49.978 18.9351H50.7527L51.5758 19.301Z" fill="#8B5CF6"/>
<path d="M35.2231 17.9311L35.5136 18.3064L35.9857 17.6871L36.8088 17.6402V17.3212L35.8041 17.3775L35.671 17.2461L35.2231 17.9311Z" fill="#8B5CF6"/>
<path d="M38.031 18.8601C38.5273 18.785 38.963 18.8601 39.3262 18.6537L39.5319 18.8038C39.5319 18.6255 39.5319 18.4848 39.5319 18.2596L38.7088 18.4848L38.3215 18.3253L38.031 18.8601Z" fill="#8B5CF6"/>
<path d="M64.4668 8.94214C64.0552 8.30409 63.2563 8.78263 62.7722 8.50113L62.3364 8.70756C62.3364 8.70756 62.3969 8.79201 62.4333 8.79201L64.4668 8.94214Z" fill="#8B5CF6"/>
<path d="M128.958 9.73968C129.841 9.7919 130.723 9.62425 131.475 9.26114C130.858 9.07347 130.422 9.34558 129.999 9.58016C129.999 9.58016 129.902 9.58016 129.878 9.58016L129.623 9.41127L128.958 9.73968Z" fill="#8B5CF6"/>
<path d="M112.375 17.5183V17.7623C112.678 18.025 112.968 17.4996 113.247 17.7623L114.082 17.5183L113.331 17.1524L113.234 17.4433L112.375 17.5183Z" fill="#8B5CF6"/>
<path d="M61.0654 18.8693L60.7749 19.3385L61.7311 19.8921L61.9853 19.5919C61.8643 19.1978 61.1864 19.3291 61.0654 18.8693Z" fill="#8B5CF6"/>
<path d="M52.3384 17.3212L53.1009 17.6872L53.4883 17.4619L54.3113 17.8936L54.0087 17.34L52.3626 17.2368L52.3384 17.3212Z" fill="#8B5CF6"/>
<path d="M51.5999 17.9592V17.6777L49.8569 17.3306C49.978 17.5558 50.0506 17.6777 50.1353 17.8185C50.5832 17.9592 51.1037 17.6214 51.5999 17.9592Z" fill="#8B5CF6"/>
<path d="M115.171 17.1243L115.497 17.3589L116.575 16.8522L116.163 16.4956L116.03 16.8053L115.171 17.1243Z" fill="#8B5CF6"/>
<path d="M147.67 0.85403V1.35133L147.38 1.18242L147.307 1.50146C147.814 1.47814 148.292 1.31117 148.651 1.03231C148.312 1.03231 148.167 1.03231 148.034 1.03231C147.9 1.03231 147.828 0.919712 147.67 0.85403Z" fill="#8B5CF6"/>
<path d="M44.9065 15.9232C45.1412 16.0629 45.4113 16.1626 45.6991 16.216C45.9869 16.2693 46.286 16.2751 46.5769 16.2328C46.4596 16.1515 46.3294 16.0822 46.1895 16.0264C45.9838 16.0264 45.778 16.0921 45.5601 15.9607C45.3422 15.8293 45.2333 15.9326 44.9065 15.9232Z" fill="#8B5CF6"/>
<path d="M25.927 4.49448L27.6942 4.63525L26.8227 4.17546L25.927 4.49448Z" fill="#8B5CF6"/>
<path d="M113.706 15.1631L113.368 14.9003L112.484 15.21L112.932 15.4258L113.706 15.1631Z" fill="#8B5CF6"/>
<path d="M79.6211 20.1363C80.0689 20.202 80.4684 20.5961 80.9404 20.324V20.1363C80.9404 20.1363 80.9405 20.08 80.8799 20.08L79.6211 20.1363Z" fill="#8B5CF6"/>
<path d="M35.1623 17.9029V17.6214C34.8057 17.5934 34.4455 17.6124 34.0971 17.6777C34.0971 17.6777 34.0971 17.7622 34.0366 17.8091L34.5571 18.0906L34.6418 17.8279L35.1623 17.9029Z" fill="#8B5CF6"/>
<path d="M42.7883 13.3522V13.6619L43.8777 13.5962V13.3053L43.6719 13.4179L42.7883 13.3522Z" fill="#8B5CF6"/>
<path d="M151.048 0.0283248V0.29105C151.483 0.450562 151.786 0.206593 152.258 0.0470806C151.858 -0.00847408 151.45 -0.014797 151.048 0.0283248Z" fill="#8B5CF6"/>
<path d="M128.11 14.2907L127.118 14.347C127.542 14.4502 127.929 14.7035 128.522 14.4783L128.11 14.3845V14.2907Z" fill="#8B5CF6"/>
<path d="M96.555 16.5142C96.325 16.5611 95.9982 16.4392 95.7319 16.777L96.1919 16.852L96.5792 16.9646L96.555 16.5142Z" fill="#8B5CF6"/>
<path d="M57.7971 19.4699H57.4219H57.0466C57.2887 19.8922 57.6518 19.7233 58.136 19.7327L57.7971 19.4699Z" fill="#8B5CF6"/>
<path d="M32.5359 16.3828V16.1107C32.2091 16.0544 31.9428 15.7729 31.5071 16.0075L32.0155 16.2139L32.5359 16.3828Z" fill="#8B5CF6"/>
<path d="M46.3708 18.5412L46.1892 18.7101C46.5039 18.8414 46.5039 18.8414 47.206 18.7101L46.7339 18.4849L46.3708 18.5412Z" fill="#8B5CF6"/>
<path d="M58.9229 19.6951L58.8624 18.8882L58.2693 19.2072L58.6929 19.301L58.8019 19.7139L58.9229 19.6951Z" fill="#8B5CF6"/>
<path d="M105.451 17.5747C105.185 17.9313 105.633 18.1002 105.754 18.3535L105.693 17.6029L105.451 17.5747Z" fill="#8B5CF6"/>
<path d="M89.0986 19.5827C89.4133 19.8079 89.7523 20.0049 90.309 19.7797L89.0986 19.5827Z" fill="#8B5CF6"/>
<path d="M38.3581 16.8802C37.9345 16.7301 37.5714 16.5518 37.1477 16.7864C37.5229 16.7113 37.8861 17.0773 38.3581 16.8802Z" fill="#8B5CF6"/>
<path d="M60.6418 9.08288C60.9444 9.18609 61.1986 9.44881 61.6707 9.22362L61.2712 9.16732L61.3681 9.04534L60.6418 9.08288Z" fill="#8B5CF6"/>
<path d="M35.1988 13.8025V13.5585L34.291 13.3709V13.5022L35.1988 13.8025Z" fill="#8B5CF6"/>
<path d="M147.175 1.69853L146.497 1.42642L146 1.67039C146.388 1.72444 146.784 1.73392 147.175 1.69853Z" fill="#8B5CF6"/>
<path d="M33.2986 17.6308C33.5044 17.8842 33.5891 18.0062 33.7222 18.175C33.805 18.1038 33.8818 18.0286 33.9522 17.9499C34.0369 17.8185 34.0248 17.8185 33.2986 17.6308Z" fill="#8B5CF6"/>
<path d="M49.0461 18.5693V18.832H49.5787V18.5693H49.0461Z" fill="#8B5CF6"/>
<path d="M128.304 14.9567L127.748 15.1256C127.748 15.1256 127.808 15.2288 127.832 15.2194C128.129 15.227 128.424 15.1787 128.692 15.0787L128.304 14.9567Z" fill="#8B5CF6"/>
<path d="M116.2 15.97L116.744 16.2891L116.986 16.0733L116.309 15.8481L116.2 15.97Z" fill="#8B5CF6"/>
<path d="M21.2307 15.0224L20.9402 15.135C20.9402 15.4446 21.2912 15.5009 21.5696 15.6135C21.5696 15.5197 21.4485 15.4259 21.4001 15.332L21.2307 15.0224Z" fill="#8B5CF6"/>
</svg>
